<svg xmlns="http://www.w3.org/2000/svg" viewBox="0 0 32 32" fill="none">
  <rect width="32" height="32" rx="8" fill="#3b82f6"/>
  <g transform="translate(4, 4) rotate(-45 12 12)">
    <path d="M2 9a3 3 0 0 1 0 6v2a2 2 0 0 0 2 2h16a2 2 0 0 0 2-2v-2a3 3 0 0 1 0-6V7a2 2 0 0 0-2-2H4a2 2 0 0 0-2 2Z" stroke="white" stroke-width="2" stroke-linecap="round" stroke-linejoin="round"/>
    <path d="M13 5v2" stroke="white" stroke-width="2" stroke-linecap="round"/>
    <path d="M13 11v2" stroke="white" stroke-width="2" stroke-linecap="round"/>
    <path d="M13 17v2" stroke="white" stroke-width="2" stroke-linecap="round"/>
  </g>
</svg>